<svg xmlns="http://www.w3.org/2000/svg" width="1280" height="640" viewBox="0 0 1280 640" role="img" aria-labelledby="title desc">
  <title id="title">LifeOS AI social preview</title>
  <desc id="desc">Promotional preview for LifeOS AI, a local-first personal AI assistant with desktop core and mobile PWA.</desc>
  <defs>
    <linearGradient id="bg" x1="0" x2="1" y1="0" y2="1">
      <stop offset="0" stop-color="#07111f"/>
      <stop offset="0.55" stop-color="#0f172a"/>
      <stop offset="1" stop-color="#1e293b"/>
    </linearGradient>
    <linearGradient id="accent" x1="0" x2="1">
      <stop offset="0" stop-color="#38bdf8"/>
      <stop offset="1" stop-color="#22c55e"/>
    </linearGradient>
  </defs>
  <rect width="1280" height="640" fill="url(#bg)"/>
  <circle cx="1090" cy="96" r="180" fill="#1d4ed8" opacity="0.16"/>
  <circle cx="1010" cy="560" r="220" fill="#16a34a" opacity="0.12"/>
  <rect x="76" y="76" width="1128" height="488" rx="34" fill="#f8fafc"/>
  <rect x="116" y="118" width="96" height="96" rx="24" fill="#0f172a"/>
  <circle cx="164" cy="166" r="24" fill="url(#accent)"/>
  <text x="244" y="158" fill="#0f172a" font-family="Arial, sans-serif" font-size="56" font-weight="900">LifeOS AI</text>
  <text x="244" y="208" fill="#2563eb" font-family="Arial, sans-serif" font-size="24" font-weight="800">个人 AI 管家 / Local-first personal AI assistant</text>
  <text x="116" y="306" fill="#0f172a" font-family="Arial, sans-serif" font-size="42" font-weight="900">把电脑变成私人 AI 核心</text>
  <text x="116" y="360" fill="#0f172a" font-family="Arial, sans-serif" font-size="42" font-weight="900">把手机变成随身 AI 管家</text>
  <text x="116" y="422" fill="#475569" font-family="Arial, sans-serif" font-size="22">Desktop local core · Mobile PWA · SQLite · Backups · Safer local actions</text>
  <rect x="116" y="472" width="168" height="44" rx="22" fill="#dbeafe"/>
  <text x="145" y="501" fill="#1e40af" font-family="Arial, sans-serif" font-size="16" font-weight="800">macOS DMG</text>
  <rect x="304" y="472" width="188" height="44" rx="22" fill="#dcfce7"/>
  <text x="333" y="501" fill="#166534" font-family="Arial, sans-serif" font-size="16" font-weight="800">Windows NSIS</text>
  <rect x="512" y="472" width="176" height="44" rx="22" fill="#fef3c7"/>
  <text x="541" y="501" fill="#92400e" font-family="Arial, sans-serif" font-size="16" font-weight="800">Linux AppImage</text>
  <rect x="824" y="148" width="252" height="360" rx="34" fill="#0f172a"/>
  <rect x="846" y="178" width="208" height="300" rx="24" fill="#f8fafc"/>
  <text x="874" y="228" fill="#0f172a" font-family="Arial, sans-serif" font-size="22" font-weight="900">Mobile AI</text>
  <rect x="874" y="256" width="150" height="34" rx="17" fill="#dcfce7"/>
  <text x="892" y="278" fill="#166534" font-family="Arial, sans-serif" font-size="13" font-weight="800">Paired to desktop</text>
  <rect x="874" y="318" width="136" height="64" rx="18" fill="#e2e8f0"/>
  <rect x="914" y="404" width="110" height="52" rx="18" fill="#2563eb"/>
  <text x="934" y="437" fill="#fff" font-family="Arial, sans-serif" font-size="15" font-weight="800">Ask AI</text>
</svg>
