<svg xmlns="http://www.w3.org/2000/svg" width="1280" height="820" viewBox="0 0 1280 820" role="img" aria-labelledby="title desc">
  <title id="title">LifeOS AI desktop admin preview</title>
  <desc id="desc">Desktop admin dashboard preview showing local core, devices, AI providers, backups, and security status.</desc>
  <defs>
    <linearGradient id="bg" x1="0" x2="1" y1="0" y2="1">
      <stop offset="0" stop-color="#0b1220"/>
      <stop offset="0.48" stop-color="#111827"/>
      <stop offset="1" stop-color="#1f2937"/>
    </linearGradient>
    <linearGradient id="panel" x1="0" x2="1" y1="0" y2="1">
      <stop offset="0" stop-color="#f8fafc"/>
      <stop offset="1" stop-color="#e2e8f0"/>
    </linearGradient>
  </defs>
  <rect width="1280" height="820" fill="url(#bg)"/>
  <rect x="48" y="48" width="1184" height="724" rx="24" fill="#f8fafc"/>
  <rect x="48" y="48" width="246" height="724" rx="24" fill="#0f172a"/>
  <rect x="48" y="714" width="246" height="58" fill="#0f172a"/>
  <circle cx="94" cy="98" r="18" fill="#38bdf8"/>
  <text x="126" y="106" fill="#f8fafc" font-family="Arial, sans-serif" font-size="24" font-weight="800">LifeOS AI</text>
  <text x="74" y="158" fill="#93c5fd" font-family="Arial, sans-serif" font-size="13" font-weight="700">PERSONAL AI CORE</text>
  <rect x="72" y="188" width="184" height="42" rx="12" fill="#1d4ed8"/>
  <text x="104" y="215" fill="#fff" font-family="Arial, sans-serif" font-size="15" font-weight="700">Dashboard</text>
  <text x="104" y="270" fill="#cbd5e1" font-family="Arial, sans-serif" font-size="15">Devices</text>
  <text x="104" y="324" fill="#cbd5e1" font-family="Arial, sans-serif" font-size="15">AI Providers</text>
  <text x="104" y="378" fill="#cbd5e1" font-family="Arial, sans-serif" font-size="15">Backups</text>
  <text x="104" y="432" fill="#cbd5e1" font-family="Arial, sans-serif" font-size="15">Security</text>
  <text x="104" y="486" fill="#cbd5e1" font-family="Arial, sans-serif" font-size="15">Diagnostics</text>
  <text x="336" y="118" fill="#0f172a" font-family="Arial, sans-serif" font-size="34" font-weight="800">Desktop local core</text>
  <text x="336" y="153" fill="#64748b" font-family="Arial, sans-serif" font-size="17">Connect AI, manage devices, keep data local, and serve the mobile PWA.</text>
  <rect x="336" y="196" width="256" height="150" rx="18" fill="#dcfce7"/>
  <text x="364" y="238" fill="#14532d" font-family="Arial, sans-serif" font-size="17" font-weight="800">Core online</text>
  <text x="364" y="270" fill="#166534" font-family="Arial, sans-serif" font-size="14">SQLite, WebSocket, API</text>
  <text x="364" y="305" fill="#166534" font-family="Arial, sans-serif" font-size="32" font-weight="800">Healthy</text>
  <rect x="620" y="196" width="256" height="150" rx="18" fill="#dbeafe"/>
  <text x="648" y="238" fill="#1e3a8a" font-family="Arial, sans-serif" font-size="17" font-weight="800">Phone paired</text>
  <text x="648" y="270" fill="#1d4ed8" font-family="Arial, sans-serif" font-size="14">Mobile PWA connected</text>
  <text x="648" y="305" fill="#1e40af" font-family="Arial, sans-serif" font-size="32" font-weight="800">1 device</text>
  <rect x="904" y="196" width="256" height="150" rx="18" fill="#fef3c7"/>
  <text x="932" y="238" fill="#92400e" font-family="Arial, sans-serif" font-size="17" font-weight="800">AI providers</text>
  <text x="932" y="270" fill="#b45309" font-family="Arial, sans-serif" font-size="14">Gemini, OpenAI, OpenRouter</text>
  <text x="932" y="305" fill="#92400e" font-family="Arial, sans-serif" font-size="32" font-weight="800">Ready</text>
  <rect x="336" y="384" width="374" height="242" rx="20" fill="url(#panel)"/>
  <text x="364" y="426" fill="#0f172a" font-family="Arial, sans-serif" font-size="20" font-weight="800">Mobile binding</text>
  <rect x="364" y="452" width="116" height="116" rx="10" fill="#fff"/>
  <rect x="384" y="472" width="22" height="22" fill="#0f172a"/>
  <rect x="428" y="472" width="22" height="22" fill="#0f172a"/>
  <rect x="384" y="516" width="22" height="22" fill="#0f172a"/>
  <rect x="428" y="516" width="22" height="22" fill="#2563eb"/>
  <rect x="492" y="456" width="176" height="34" rx="10" fill="#e0f2fe"/>
  <text x="508" y="478" fill="#075985" font-family="Arial, sans-serif" font-size="13" font-weight="700">Scan to pair phone</text>
  <text x="492" y="526" fill="#475569" font-family="Arial, sans-serif" font-size="14">PWA install path keeps the pairing token through iOS add-to-home-screen.</text>
  <rect x="748" y="384" width="412" height="242" rx="20" fill="#f8fafc" stroke="#cbd5e1"/>
  <text x="780" y="426" fill="#0f172a" font-family="Arial, sans-serif" font-size="20" font-weight="800">Security and backups</text>
  <rect x="780" y="456" width="328" height="42" rx="12" fill="#ecfdf5"/>
  <text x="804" y="483" fill="#166534" font-family="Arial, sans-serif" font-size="15" font-weight="700">Dangerous local actions require confirmation</text>
  <rect x="780" y="514" width="328" height="42" rx="12" fill="#eff6ff"/>
  <text x="804" y="541" fill="#1d4ed8" font-family="Arial, sans-serif" font-size="15" font-weight="700">Backups, restore preview, and cancel restore</text>
  <rect x="780" y="572" width="328" height="42" rx="12" fill="#f1f5f9"/>
  <text x="804" y="599" fill="#334155" font-family="Arial, sans-serif" font-size="15" font-weight="700">Redacted diagnostics and audit logs</text>
  <rect x="336" y="660" width="824" height="52" rx="16" fill="#0f172a"/>
  <text x="366" y="693" fill="#f8fafc" font-family="Arial, sans-serif" font-size="18" font-weight="800">Local-first personal AI assistant for desktop and phone</text>
</svg>
