<svg width="1280" height="650" viewBox="0 0 1280 650" fill="none" xmlns="http://www.w3.org/2000/svg" role="img" aria-labelledby="title desc">
  <title id="title">Generate programs that solve the current problem</title>
  <desc id="desc">Not a toy app generator: create the tool for the concrete task.</desc>
  <rect width="1280" height="650" rx="32" fill="#080F18"/>
  <rect x="34" y="34" width="1212" height="582" rx="30" fill="#0A1420" stroke="#223449"/>
  <text x="64" y="92" fill="#F8FAFC" font-family="Inter, Arial, Helvetica, sans-serif" font-size="45" font-weight="900">Generate programs that solve the current problem</text>
  <text x="64" y="132" fill="#94A3B8" font-family="Inter, Arial, Helvetica, sans-serif" font-size="21">Not a toy app generator: create the tool for the concrete task.</text>
  <g transform="translate(74 188)">
    <rect width="320" height="344" rx="28" fill="#111827" stroke="#334155"/>
    <text x="30" y="56" fill="#FDE68A" font-family="Inter, Arial, Helvetica, sans-serif" font-size="27" font-weight="900">Real needs</text>
    <text x="32" y="104" fill="#E5E7EB" font-family="Inter, Arial, Helvetica, sans-serif" font-size="19">Budgeting</text><text x="32" y="134" fill="#E5E7EB" font-family="Inter, Arial, Helvetica, sans-serif" font-size="19">Planning</text><text x="32" y="164" fill="#E5E7EB" font-family="Inter, Arial, Helvetica, sans-serif" font-size="19">Lookup</text><text x="32" y="194" fill="#E5E7EB" font-family="Inter, Arial, Helvetica, sans-serif" font-size="19">Sorting</text><text x="32" y="224" fill="#E5E7EB" font-family="Inter, Arial, Helvetica, sans-serif" font-size="19">Check-ins</text><text x="32" y="254" fill="#E5E7EB" font-family="Inter, Arial, Helvetica, sans-serif" font-size="19">Calculation</text><text x="32" y="284" fill="#E5E7EB" font-family="Inter, Arial, Helvetica, sans-serif" font-size="19">Forms</text><text x="32" y="314" fill="#E5E7EB" font-family="Inter, Arial, Helvetica, sans-serif" font-size="19">Workflow panels</text>
  </g>
  <path d="M422 360H514" stroke="#64748B" stroke-width="5"/>
  <path d="M500 340L522 360L500 380" stroke="#64748B" stroke-width="5" fill="none"/>
  <g transform="translate(544 166)">
    <rect width="384" height="390" rx="30" fill="#0F172A" stroke="#38BDF8" stroke-width="2"/>
    <text x="32" y="62" fill="#67E8F9" font-family="Inter, Arial, Helvetica, sans-serif" font-size="29" font-weight="900">OwnOrbit Studio</text>
    <rect x="32" y="96" width="320" height="68" rx="17" fill="#172554" stroke="#2563EB"/>
    <text x="52" y="136" fill="#DBEAFE" font-family="Inter, Arial, Helvetica, sans-serif" font-size="18">Describe the problem</text>
    <rect x="32" y="190" width="320" height="126" rx="17" fill="#020617" stroke="#334155"/>
    <text x="52" y="229" fill="#A7F3D0" font-family="Inter, Arial, Helvetica, sans-serif" font-size="18" font-weight="850">AI generates a runnable program</text>
    <text x="52" y="264" fill="#CBD5E1" font-family="Inter, Arial, Helvetica, sans-serif" font-size="18">Keep debugging and refining</text>
    <text x="52" y="297" fill="#CBD5E1" font-family="Inter, Arial, Helvetica, sans-serif" font-size="18">HTML / CSS / JS remains editable</text>
  </g>
  <path d="M954 360H1038" stroke="#64748B" stroke-width="5"/>
  <path d="M1024 340L1046 360L1024 380" stroke="#64748B" stroke-width="5" fill="none"/>
  <g transform="translate(1066 206)">
    <rect width="142" height="308" rx="28" fill="#111827" stroke="#334155"/>
    <text x="33" y="56" fill="#A7F3D0" font-family="Inter, Arial, Helvetica, sans-serif" font-size="24" font-weight="900">Result</text>
    <rect x="18" y="86" width="106" height="54" rx="14" fill="#134E4A"/>
    <text x="34" y="120" fill="#CCFBF1" font-family="Inter, Arial, Helvetica, sans-serif" font-size="15" font-weight="850">Runnable tool</text>
    <rect x="18" y="164" width="106" height="54" rx="14" fill="#172554"/>
    <text x="31" y="198" fill="#DBEAFE" font-family="Inter, Arial, Helvetica, sans-serif" font-size="15" font-weight="850">Editable panel</text>
    <rect x="18" y="242" width="106" height="44" rx="14" fill="#422006"/>
    <text x="32" y="270" fill="#FEF3C7" font-family="Inter, Arial, Helvetica, sans-serif" font-size="15" font-weight="850">Problem workflow</text>
  </g>
</svg>
